# xmcd
#
# Track frame offsets:
#   150
#   13965
#   30127
#   38962
#   52160
#   61498
#   74041
#   88148
#   95123
#   108387
#   123853
#   139907
#   151473
#   164463
#   172708
#   184577
#   197931
#   211240
#   220649
#   232695
#   254905
#   266774
#   281008
#   294956
#   302435
#   310927
#   322485
#   337236
#   347708
#
# Disc length: 4763 seconds
#
# Revision: 0
# Processed by: cddbd v1.5.1PL0 Copyright (c) Steve Scherf et al.
# Submitted via: uFREEDB ActiveX Control 1.5
#
DISCID=c312991d
DTITLE=Less Than Jake - ..
DYEAR=2000
DGENRE=Alternative
TTITLE0=Al's War
TTITLE1=All My Best Friends Are Metalheads
TTITLE2=9th At Pine
TTITLE3=Danny Says
TTITLE4=I Think I Love You
TTITLE5=Big Crash
TTITLE6=Look What Happened (The Last Time)
TTITLE7=Great American Sharpshooter
TTITLE8=Best Wishes To Your Black Lung
TTITLE9=History of a Boring Town
TTITLE10=Escape From the A-Bomb House
TTITLE11=Dopeman
TTITLE12=Five State Drive
TTITLE13=Richard Allen George...No, It's Just Cheez
TTITLE14=Scott Farcas Takes It On the Chin
TTITLE15=Help Save the Youth of America From Exploding
TTITLE16=Nervous In the Alley
TTITLE17=Last One Out of Liberty City
TTITLE18=Motown Never Sounded So Good
TTITLE19=The Brightest Bulb Has Burned Out, Screws Fall Out
TTITLE20=11111
TTITLE21=The Science Of Selling Yourself Short
TTITLE22=That's Why They Call It A Union
TTITLE23=Blue Moon
TTITLE24=Summer Lovin
TTITLE25=We're All Dudes
TTITLE26=She's Gonna Break Soon
TTITLE27=Plastic Cup Politics
TTITLE28=Sugar In Your Gas Tank
EXTD=
EXTT0=
EXTT1=
EXTT2=
EXTT3=
EXTT4=
EXTT5=
EXTT6=
EXTT7=
EXTT8=
EXTT9=
EXTT10=
EXTT11=
EXTT12=
EXTT13=
EXTT14=
EXTT15=
EXTT16=
EXTT17=
EXTT18=
EXTT19=
EXTT20=
EXTT21=
EXTT22=
EXTT23=
EXTT24=
EXTT25=
EXTT26=
EXTT27=
EXTT28=
PLAYORDER=
